<svg xmlns="http://www.w3.org/2000/svg" viewBox="0 0 1200 900">
  <defs>
    <linearGradient id="bg" x1="0" x2="0" y1="0" y2="1">
      <stop offset="0%" stop-color="#f2efe9" />
      <stop offset="100%" stop-color="#d9d5cf" />
    </linearGradient>
    <linearGradient id="cup" x1="0" x2="0" y1="0" y2="1">
      <stop offset="0%" stop-color="#ffffff" />
      <stop offset="100%" stop-color="#f0f0f0" />
    </linearGradient>
    <linearGradient id="lid" x1="0" x2="1" y1="0" y2="0">
      <stop offset="0%" stop-color="#1e1e1e" />
      <stop offset="100%" stop-color="#383838" />
    </linearGradient>
    <filter id="shadow" x="-20%" y="-20%" width="140%" height="140%" color-interpolation-filters="sRGB">
      <feDropShadow dx="0" dy="25" stdDeviation="30" flood-color="#000" flood-opacity="0.15" />
    </filter>
  </defs>
  <rect width="1200" height="900" fill="url(#bg)" />
  <rect x="120" y="140" width="360" height="620" rx="32" fill="#fcfbf8" filter="url(#shadow)" />
  <path d="M 220 210 h 160 l -30 340 h -100 z" fill="#f4f2ed" />
  <rect x="220" y="190" width="160" height="40" rx="12" fill="url(#lid)" />
  <rect x="230" y="240" width="140" height="200" rx="18" fill="#ffffff" stroke="#1e1e1e" stroke-width="4" />
  <text x="300" y="320" font-family="'Montserrat',sans-serif" font-size="40" text-anchor="middle" fill="#1e1e1e" font-weight="600">IRON</text>
  <text x="300" y="365" font-family="'Montserrat',sans-serif" font-size="36" text-anchor="middle" fill="#1e1e1e" letter-spacing="4">GRIND</text>
  <text x="300" y="405" font-family="'Montserrat',sans-serif" font-size="28" text-anchor="middle" fill="#1e1e1e">COFFEE</text>
  <path d="M 285 262 c 0 -10 10 -18 22 -18 s 22 8 22 18 c 0 8 -5 14 -12 16 -3 7 -10 12 -20 12 -10 0 -18 -5 -20 -12 -7 -2 -12 -8 -12 -16 z" fill="#1e1e1e" />
  <rect x="580" y="120" width="320" height="360" rx="22" fill="#111111" filter="url(#shadow)" />
  <rect x="600" y="150" width="280" height="300" rx="18" fill="#fdfdfd" />
  <text x="740" y="220" font-family="'Montserrat',sans-serif" font-size="38" text-anchor="middle" fill="#111111" font-weight="700">IRON GRIND</text>
  <text x="740" y="265" font-family="'Montserrat',sans-serif" font-size="32" text-anchor="middle" fill="#111111">COFFEE</text>
  <line x1="620" y1="300" x2="880" y2="300" stroke="#111111" stroke-width="3" />
  <g fill="#1e1e1e" font-family="'Space Grotesk',sans-serif" font-size="26">
    <text x="630" y="340">COFFEE</text>
    <text x="850" y="340" text-anchor="end">3</text>
    <text x="630" y="380">ESPRESSO</text>
    <text x="850" y="380" text-anchor="end">3</text>
    <text x="630" y="420">AMERICANO</text>
    <text x="850" y="420" text-anchor="end">4</text>
    <text x="630" y="460">LATTE</text>
    <text x="850" y="460" text-anchor="end">5</text>
    <text x="630" y="500">CAPPUCCINO</text>
    <text x="850" y="500" text-anchor="end">5</text>
    <text x="630" y="540">MOCHA</text>
    <text x="850" y="540" text-anchor="end">5</text>
    <text x="630" y="580">OTHER</text>
    <text x="850" y="580" text-anchor="end">2</text>
    <text x="630" y="620">TEA</text>
    <text x="850" y="620" text-anchor="end">3</text>
    <text x="630" y="660">ICED TEA</text>
    <text x="850" y="660" text-anchor="end">4</text>
  </g>
  <rect x="940" y="260" width="120" height="360" fill="#ede8df" />
  <rect x="940" y="260" width="60" height="360" fill="#d0cbc3" />
  <path d="M 800 700 c 0 50 -90 90 -200 90 s -200 -40 -200 -90" fill="none" stroke="#000" stroke-opacity="0.08" stroke-width="24" stroke-linecap="round" />
</svg>
