<svg xmlns="http://www.w3.org/2000/svg" viewBox="0 0 1200 900">
  <defs>
    <linearGradient id="bg" x1="0" x2="1" y1="0" y2="1">
      <stop offset="0%" stop-color="#0f172a" />
      <stop offset="100%" stop-color="#0b1120" />
    </linearGradient>
    <linearGradient id="panel" x1="0" x2="1" y1="0" y2="1">
      <stop offset="0%" stop-color="#1e2940" />
      <stop offset="100%" stop-color="#0f172a" />
    </linearGradient>
    <linearGradient id="device" x1="0" x2="1" y1="0" y2="1">
      <stop offset="0%" stop-color="#1f2937" />
      <stop offset="100%" stop-color="#0b111f" />
    </linearGradient>
    <radialGradient id="glow" cx="50%" cy="40%" r="70%">
      <stop offset="0%" stop-color="#1d4ed8" stop-opacity="0.45" />
      <stop offset="100%" stop-color="#0f172a" stop-opacity="0" />
    </radialGradient>
    <filter id="shadow" x="-20%" y="-20%" width="140%" height="140%" color-interpolation-filters="sRGB">
      <feDropShadow dx="0" dy="25" stdDeviation="35" flood-color="#01060c" flood-opacity="0.5" />
    </filter>
  </defs>
  <rect width="1200" height="900" fill="url(#bg)" />
  <g opacity="0.25" stroke="#1e3a8a" stroke-width="2">
    <path d="M-40 120 q200 80 320 0 t320 0 t320 0 t320 0" fill="none" />
    <path d="M-40 240 q200 80 320 0 t320 0 t320 0 t320 0" fill="none" />
    <path d="M-40 360 q200 80 320 0 t320 0 t320 0 t320 0" fill="none" />
    <path d="M-40 480 q200 80 320 0 t320 0 t320 0 t320 0" fill="none" />
    <path d="M-40 600 q200 80 320 0 t320 0 t320 0 t320 0" fill="none" />
    <path d="M-40 720 q200 80 320 0 t320 0 t320 0 t320 0" fill="none" />
  </g>
  <circle cx="600" cy="460" r="420" fill="url(#glow)" />
  <g transform="translate(350, 170)" filter="url(#shadow)">
    <rect width="500" height="360" rx="28" fill="url(#panel)" stroke="#1f3f78" stroke-width="2" />
    <text x="250" y="70" text-anchor="middle" font-size="54" font-family="'Poppins',sans-serif" font-weight="600" fill="#e2e8f0">SENTINEL</text>
    <text x="250" y="120" text-anchor="middle" font-size="28" font-family="'Poppins',sans-serif" fill="#94a3b8" letter-spacing="6">HOME SYSTEMS</text>
    <path d="M250 150 l60 70 h-120 z" fill="none" stroke="#1d4ed8" stroke-width="6" stroke-linejoin="round" />
    <circle cx="250" cy="185" r="32" fill="none" stroke="#38bdf8" stroke-width="6" />
    <circle cx="250" cy="185" r="14" fill="#38bdf8" />
    <g transform="translate(70, 220)">
      <rect width="360" height="80" rx="18" fill="#0f172a" stroke="#1e40af" stroke-width="2" />
      <text x="180" y="52" text-anchor="middle" font-size="26" font-family="'Poppins',sans-serif" fill="#e2e8f0">SMART HOME SECURITY</text>
    </g>
    <g transform="translate(70, 320)" font-family="'Space Grotesk',sans-serif" font-size="20" fill="#94a3b8">
      <text x="0" y="0">Our Products</text>
      <g transform="translate(0, 32)">
        <rect width="100" height="100" rx="18" fill="url(#device)" stroke="#1d4ed8" />
        <circle cx="50" cy="50" r="20" fill="#0ea5e9" />
        <circle cx="50" cy="50" r="8" fill="#f8fafc" />
        <text x="50" y="130" text-anchor="middle" font-size="18" fill="#e2e8f0">Cameras</text>
      </g>
      <g transform="translate(130, 32)">
        <rect width="100" height="100" rx="18" fill="url(#device)" stroke="#1d4ed8" />
        <rect x="35" y="35" width="30" height="30" rx="8" fill="#facc15" />
        <text x="50" y="130" text-anchor="middle" font-size="18" fill="#e2e8f0">Sensors</text>
      </g>
      <g transform="translate(260, 32)">
        <rect width="100" height="100" rx="18" fill="url(#device)" stroke="#1d4ed8" />
        <rect x="30" y="30" width="40" height="40" rx="12" fill="#22d3ee" />
        <text x="50" y="130" text-anchor="middle" font-size="18" fill="#e2e8f0">Automation</text>
      </g>
    </g>
  </g>
  <g transform="translate(430, 520)" opacity="0.7">
    <ellipse cx="170" cy="220" rx="220" ry="60" fill="#000000" fill-opacity="0.55" />
    <rect x="20" y="0" width="300" height="200" rx="22" fill="#0f172a" stroke="#1e40af" stroke-width="3" />
    <rect x="40" y="20" width="260" height="160" rx="18" fill="#020617" />
    <g transform="translate(80, 60)">
      <rect width="60" height="60" rx="12" fill="#111827" />
      <circle cx="30" cy="30" r="18" fill="#38bdf8" />
      <circle cx="30" cy="30" r="8" fill="#f8fafc" />
      <text x="30" y="90" font-size="16" text-anchor="middle" font-family="'Poppins',sans-serif" fill="#94a3b8">Cameras</text>
    </g>
    <g transform="translate(150, 60)">
      <rect width="60" height="60" rx="12" fill="#111827" />
      <rect x="20" y="20" width="20" height="20" rx="4" fill="#facc15" />
      <text x="30" y="90" font-size="16" text-anchor="middle" font-family="'Poppins',sans-serif" fill="#94a3b8">Sensors</text>
    </g>
    <g transform="translate(220, 60)">
      <rect width="60" height="60" rx="12" fill="#111827" />
      <rect x="15" y="15" width="30" height="30" rx="8" fill="#22d3ee" />
      <text x="30" y="90" font-size="16" text-anchor="middle" font-family="'Poppins',sans-serif" fill="#94a3b8">AI Hub</text>
    </g>
  </g>
  <g transform="translate(180, 760)" fill="#0f172a">
    <rect x="0" y="0" width="840" height="40" rx="20" fill="#0f172a" opacity="0.45" />
  </g>
</svg>
